<svg width="104" height="26" viewBox="0 0 104 26" fill="none" xmlns="http://www.w3.org/2000/svg">
<path d="M12.6645 18.9576C13.9879 20.1576 15.8444 21.5837 16.8369 22.2445H8.01408V14.5925H0V5.75781H7.55456C6.37818 7.75778 6.63551 10.2447 6.89284 11.149C7.68322 13.8968 8.43684 15.1838 12.6645 18.9576Z" fill="#9747FF"/>
<path d="M17.2588 0V5.73904C15.0899 2.60866 11.1748 2.62604 9.2999 3.94776C8.9139 4.22602 8.38085 4.4695 7.55371 5.73904V0H17.2588Z" fill="#9747FF"/>
<path d="M31.4496 6.3457V21.9976H27.2771V15.5456H21.6158V21.9976H17.4434V6.3457H21.6158V12.45H27.2771V6.3457H31.4496Z" fill="#9747FF"/>
<path d="M38.8555 11.9785C40.473 11.9785 41.7045 12.4481 42.5501 13.3698C43.3956 14.2915 43.8183 15.5958 43.8183 17.248C43.8183 18.8654 43.3772 20.1175 42.4949 21.0045C41.6126 21.8914 40.3995 22.3436 38.8555 22.3436C37.3666 22.3436 36.1903 21.8914 35.308 20.9871C34.4257 20.0827 34.0029 18.8306 34.0029 17.248C34.0029 15.5958 34.4257 14.2915 35.2528 13.3698C36.08 12.4307 37.2747 11.9785 38.8555 11.9785ZM38.8739 19.6132C39.3334 19.6132 39.6826 19.4219 39.9216 19.0567C40.1605 18.6915 40.2708 18.048 40.2708 17.1437C40.2708 16.2567 40.1605 15.6306 39.9216 15.2654C39.701 14.9002 39.3518 14.7263 38.8923 14.7263C38.4511 14.7263 38.1019 14.9002 37.8629 15.248C37.624 15.5958 37.5137 16.2393 37.5137 17.161C37.5137 18.7958 37.9732 19.6132 38.8739 19.6132Z" fill="#9747FF"/>
<path d="M46.3198 18.8652C47.5329 19.4913 48.4152 19.7869 48.9482 19.7869C49.2423 19.7869 49.4813 19.7173 49.6835 19.5956C49.8857 19.4739 49.9776 19.3173 49.9776 19.126C49.9776 18.9347 49.904 18.7782 49.7386 18.6913C49.5732 18.6043 48.9666 18.3608 47.9005 17.9608C47.055 17.6304 46.4484 17.2652 46.0624 16.813C45.6948 16.3783 45.4926 15.8217 45.4926 15.1783C45.4926 14.2392 45.8602 13.474 46.6139 12.8653C47.3491 12.2566 48.3049 11.9609 49.4629 11.9609C50.5841 11.9609 51.9627 12.3435 53.5802 13.1261L52.22 15.3C51.1539 14.7435 50.29 14.4652 49.6283 14.4652C49.0401 14.4652 48.746 14.6739 48.746 15.0739C48.746 15.2652 48.8563 15.4391 49.0769 15.5783C49.2975 15.7174 49.6835 15.8739 50.2533 16.0652C51.3194 16.3957 52.0914 16.7783 52.5693 17.2304C53.0472 17.6826 53.3045 18.2565 53.3045 18.9347C53.3045 19.926 52.9185 20.726 52.1649 21.3521C51.3929 21.9782 50.4187 22.2912 49.2423 22.2912C47.9557 22.2912 46.5771 21.9086 45.125 21.126L46.3198 18.8652Z" fill="#9747FF"/>
<path d="M59.0584 12.3134V13.5482H59.1136C59.904 12.5395 60.7862 12.0352 61.7788 12.0352C62.8449 12.0352 63.7088 12.5047 64.3521 13.4438C64.9955 14.3829 65.3263 15.6351 65.3263 17.2351C65.3263 18.7655 64.9955 20.0003 64.3338 20.9394C63.672 21.8785 62.8265 22.348 61.7972 22.348C60.7127 22.348 59.8121 21.8089 59.132 20.7307H59.0768V26.0002H55.5293V12.3308H59.0584V12.3134ZM61.7972 17.1307C61.7972 15.5308 61.3377 14.7482 60.4002 14.7482C59.518 14.7482 59.0768 15.5481 59.0768 17.1655C59.0768 18.8177 59.518 19.6524 60.4002 19.6524C61.3193 19.635 61.7972 18.8003 61.7972 17.1307Z" fill="#9747FF"/>
<path d="M67.5684 9.40643C67.5684 8.95427 67.7522 8.57166 68.1198 8.25862C68.4874 7.94558 68.9285 7.78906 69.4432 7.78906C69.9579 7.78906 70.399 7.94558 70.7666 8.25862C71.1343 8.57166 71.3181 8.95427 71.3181 9.40643C71.3181 9.84121 71.1343 10.2238 70.7666 10.5542C70.399 10.8673 69.9579 11.0412 69.4432 11.0412C68.9469 11.0412 68.5058 10.8847 68.1382 10.5542C67.7522 10.2238 67.5684 9.84121 67.5684 9.40643ZM67.6603 12.3107H71.2078V21.9975H67.6603V12.3107Z" fill="#9747FF"/>
<path d="M72.6221 7.72266H76.8497C77.7871 9.7748 78.4672 11.3574 78.89 12.4704H78.9451C79.3679 11.3226 80.0296 9.74002 80.9486 7.72266H85.2681L80.8383 15.5486V22.0181H77.0335V15.5486L72.6221 7.72266Z" fill="#9747FF"/>
<path d="M88.4307 11.9785C90.0482 11.9785 91.2797 12.4481 92.1252 13.3698C92.9708 14.2915 93.3935 15.5958 93.3935 17.248C93.3935 18.8654 92.9524 20.1175 92.0701 21.0045C91.1878 21.8914 89.9747 22.3436 88.4307 22.3436C86.9418 22.3436 85.7655 21.8914 84.8832 20.9871C84.0009 20.0827 83.5781 18.8306 83.5781 17.248C83.5781 15.5958 84.0009 14.2915 84.828 13.3698C85.6552 12.4307 86.8499 11.9785 88.4307 11.9785ZM88.4491 19.6132C88.9086 19.6132 89.2578 19.4219 89.4968 19.0567C89.7357 18.6915 89.846 18.048 89.846 17.1437C89.846 16.2567 89.7357 15.6306 89.4968 15.2654C89.2762 14.9002 88.927 14.7263 88.4674 14.7263C88.0263 14.7263 87.6771 14.9002 87.4381 15.248C87.1992 15.5958 87.0889 16.2393 87.0889 17.161C87.0889 18.7958 87.5484 19.6132 88.4491 19.6132Z" fill="#9747FF"/>
<path d="M94.9012 12.3123H98.4487V18.5383C98.4487 18.8687 98.5406 19.1296 98.7061 19.3383C98.8899 19.547 99.1104 19.6513 99.4229 19.6513C100.103 19.6513 100.452 19.2166 100.452 18.3644V12.2949H104V17.9122C104 19.3383 103.614 20.4339 102.842 21.1817C102.07 21.9296 100.949 22.3122 99.4964 22.3122C97.8605 22.3122 96.7025 21.9296 95.9673 21.147C95.2504 20.3818 94.8828 19.4079 94.8828 18.2427V12.3123H94.9012Z" fill="#9747FF"/>
</svg>
